<mxfile host="app.diagrams.net" agent="Mozilla/5.0 (Windows NT 10.0; Win64; x64) AppleWebKit/537.36 (KHTML, like Gecko) Chrome/131.0.0.0 Safari/537.36" version="26.0.2">
  <diagram name="PÃ¡gina-1" id="VW1z2ZLzl9S_udgye9aN">
    <mxGraphModel dx="573" dy="743" grid="1" gridSize="10" guides="1" tooltips="1" connect="1" arrows="1" fold="1" page="1" pageScale="1" pageWidth="827" pageHeight="1169" math="0" shadow="0">
      <root>
        <mxCell id="0" />
        <mxCell id="1" parent="0" />
        <mxCell id="-XtXaxl_I-R7EX7jPxWP-26" style="edgeStyle=orthogonalEdgeStyle;rounded=0;orthogonalLoop=1;jettySize=auto;html=1;" parent="1" source="-XtXaxl_I-R7EX7jPxWP-18" target="-XtXaxl_I-R7EX7jPxWP-25" edge="1">
          <mxGeometry relative="1" as="geometry" />
        </mxCell>
        <mxCell id="-XtXaxl_I-R7EX7jPxWP-28" style="edgeStyle=orthogonalEdgeStyle;rounded=0;orthogonalLoop=1;jettySize=auto;html=1;exitX=1;exitY=0.5;exitDx=0;exitDy=0;" parent="1" source="-XtXaxl_I-R7EX7jPxWP-18" target="-XtXaxl_I-R7EX7jPxWP-27" edge="1">
          <mxGeometry relative="1" as="geometry">
            <Array as="points">
              <mxPoint x="1260" y="360" />
              <mxPoint x="1260" y="200" />
            </Array>
          </mxGeometry>
        </mxCell>
        <mxCell id="-XtXaxl_I-R7EX7jPxWP-18" value="Delays in Base 4" style="rounded=0;whiteSpace=wrap;html=1;" parent="1" vertex="1">
          <mxGeometry x="1121" y="320" width="120" height="80" as="geometry" />
        </mxCell>
        <mxCell id="-XtXaxl_I-R7EX7jPxWP-30" style="edgeStyle=orthogonalEdgeStyle;rounded=0;orthogonalLoop=1;jettySize=auto;html=1;exitX=1;exitY=0.5;exitDx=0;exitDy=0;entryX=0;entryY=0.5;entryDx=0;entryDy=0;" parent="1" source="-XtXaxl_I-R7EX7jPxWP-25" target="-XtXaxl_I-R7EX7jPxWP-29" edge="1">
          <mxGeometry relative="1" as="geometry" />
        </mxCell>
        <mxCell id="-XtXaxl_I-R7EX7jPxWP-25" value="Inadequate Facility for Large Vehicles&lt;div&gt;(Issue 3.3&lt;span style=&quot;background-color: transparent; color: light-dark(rgb(0, 0, 0), rgb(255, 255, 255));&quot;&gt;.5)&lt;/span&gt;&lt;/div&gt;" style="rounded=0;whiteSpace=wrap;html=1;" parent="1" vertex="1">
          <mxGeometry x="1280" y="320" width="120" height="80" as="geometry" />
        </mxCell>
        <mxCell id="-XtXaxl_I-R7EX7jPxWP-27" value="Slow Inspection Process" style="rounded=0;whiteSpace=wrap;html=1;" parent="1" vertex="1">
          <mxGeometry x="1280" y="160" width="120" height="80" as="geometry" />
        </mxCell>
        <mxCell id="-XtXaxl_I-R7EX7jPxWP-29" value="Hoists Too Small to Accommodate Some Larger Vehicles" style="rounded=0;whiteSpace=wrap;html=1;" parent="1" vertex="1">
          <mxGeometry x="1440" y="320" width="120" height="80" as="geometry" />
        </mxCell>
        <mxCell id="mCd2HoaMfWd7tNMFFsN8-9" style="edgeStyle=orthogonalEdgeStyle;rounded=0;orthogonalLoop=1;jettySize=auto;html=1;entryX=0;entryY=0.5;entryDx=0;entryDy=0;" edge="1" parent="1" source="mCd2HoaMfWd7tNMFFsN8-7" target="-XtXaxl_I-R7EX7jPxWP-18">
          <mxGeometry relative="1" as="geometry" />
        </mxCell>
        <mxCell id="mCd2HoaMfWd7tNMFFsN8-13" style="edgeStyle=orthogonalEdgeStyle;rounded=0;orthogonalLoop=1;jettySize=auto;html=1;entryX=0;entryY=0.5;entryDx=0;entryDy=0;" edge="1" parent="1" source="mCd2HoaMfWd7tNMFFsN8-7" target="mCd2HoaMfWd7tNMFFsN8-11">
          <mxGeometry relative="1" as="geometry" />
        </mxCell>
        <mxCell id="mCd2HoaMfWd7tNMFFsN8-7" value="Vehicles Delayed at Base 3&lt;div&gt;(Issue 3.3.4)&lt;/div&gt;" style="rounded=0;whiteSpace=wrap;html=1;" vertex="1" parent="1">
          <mxGeometry x="960" y="240" width="120" height="80" as="geometry" />
        </mxCell>
        <mxCell id="mCd2HoaMfWd7tNMFFsN8-11" value="Difference In Inspection Duration Between Bases" style="rounded=0;whiteSpace=wrap;html=1;" vertex="1" parent="1">
          <mxGeometry x="1121" y="160" width="120" height="80" as="geometry" />
        </mxCell>
      </root>
    </mxGraphModel>
  </diagram>
</mxfile>
